<?xml version="1.0" encoding="utf-8"?>
<svg version="1.1" id="svg1" xmlns="http://www.w3.org/2000/svg">
  <defs>
    <style type="text/css" id="style1">
      .land
      {
      fill: #CCCCCC;
      fill-opacity: 1;
      stroke:white;
      stroke-opacity: 1;
      stroke-width:0.5;
      }
    </style>
  </defs>
  <path id="calves1" class="muscle" d="M 53.411 230.353 C 53.411 230.038 53.701 227.05 54.056 223.714 L 54.7 217.648 L 57.553 210.493 L 60.407 203.338 L 60.407 200.296 L 60.407 197.254 L 61.444 196.61 L 62.481 195.965 L 63.597 197.096 L 64.714 198.227 L 64.574 202.002 L 64.435 205.777 L 62.012 215.136 C 59.695 224.087 59.538 224.592 58.41 226.704 L 57.231 228.912 L 55.321 229.919 L 53.411 230.926 L 53.411 230.353 Z" style="stroke-width: 1;"/>
  <path id="calves2" class="muscle" d="M 64.561 230.003 C 62.102 227.329 61.635 226.641 61.637 225.694 C 61.642 222.961 66.982 202.889 68.024 201.689 C 68.139 201.556 68.876 202.638 69.662 204.093 L 71.091 206.738 L 70.355 218.017 L 69.618 229.296 L 68.553 231.241 L 67.488 233.185 L 64.561 230.003 Z" style="stroke-width: 1;"/>
  <path id="calves3" class="muscle" d="M 109.822 230.758 C 109.291 229.812 109.081 227.894 108.493 218.617 L 107.796 207.601 L 109.157 204.325 L 110.518 201.05 L 111.907 204.869 C 112.671 206.969 114.216 212.626 115.34 217.439 L 117.384 226.19 L 115.471 228.757 C 114.419 230.169 113.532 231.361 113.5 231.407 C 113.468 231.452 112.769 231.578 111.948 231.685 C 110.526 231.871 110.424 231.826 109.822 230.758 Z" style="stroke-width: 1;"/>
  <path id="calves4" class="muscle" d="M 120.383 226.503 C 118.598 223.408 118.455 222.988 117.93 219.33 C 117.611 217.102 116.491 212.394 115.305 208.295 L 113.238 201.145 L 114.33 198.497 C 114.931 197.041 115.521 195.745 115.641 195.619 C 115.761 195.492 116.354 195.832 116.958 196.374 C 118.028 197.335 118.056 197.431 118.057 200.152 C 118.058 202.861 118.144 203.16 120.937 210.208 L 123.816 217.472 L 124.313 222.539 C 124.587 225.327 124.811 228.101 124.812 228.705 C 124.813 229.75 124.751 229.803 123.546 229.797 C 122.3 229.791 122.247 229.736 120.383 226.503 Z" style="stroke-width: 1;"/>
  <path id="glutes1" class="muscle" d="M 70.696 154.291 L 67.639 152.735 L 66.508 150.198 C 65.474 147.876 65.378 147.462 65.378 145.344 C 65.378 143.149 65.49 142.714 67.545 136.952 C 69.915 130.307 69.698 130.667 74.046 126.126 L 76.873 123.174 L 78.196 123.185 C 79.307 123.194 79.952 123.452 82.221 124.796 C 84.921 126.395 84.923 126.397 86.543 129.11 L 88.164 131.824 L 88.166 139.969 L 88.168 148.115 L 86.902 151.699 C 86.078 154.034 85.48 155.326 85.186 155.408 C 84.938 155.477 82.264 155.604 79.244 155.69 L 73.752 155.847 L 70.696 154.291 Z" style="stroke-width: 1;"/>
  <path id="glutes2" class="muscle" d="M 93.26 155.507 C 93.201 155.318 93.003 154.669 92.82 154.065 C 92.637 153.461 92.01 151.76 91.426 150.284 L 90.365 147.601 L 90.369 139.85 L 90.373 132.098 L 91.823 129.375 L 93.273 126.652 L 97.089 124.49 L 100.905 122.328 L 104.541 125.956 L 108.177 129.584 L 110.355 135.235 C 112.181 139.971 112.605 141.382 112.975 143.955 L 113.416 147.024 L 112.256 149.858 L 111.095 152.692 L 107.938 154.252 L 104.78 155.812 L 99.074 155.831 C 94.736 155.845 93.342 155.768 93.26 155.507 Z" style="stroke-width: 1;"/>
  <path id="harmstrings1" class="muscle" d="M 70.5 201.088 L 68.389 196.626 L 68.394 193.575 C 68.399 190.532 68.402 190.515 69.809 187.122 C 71.215 183.73 71.221 183.701 72.001 177.13 C 72.772 170.634 72.806 170.476 74.4 166.016 C 76.259 160.816 76.048 160.657 76.777 167.795 C 77.009 170.06 77.69 174.823 78.29 178.38 L 79.383 184.847 L 78.19 190.599 C 77.09 195.905 76.842 196.708 74.995 200.951 C 73.893 203.48 72.906 205.55 72.802 205.55 C 72.697 205.55 71.662 203.542 70.5 201.088 Z" style="stroke-width: 1;"/>
  <path id="harmstrings2" class="muscle" d="M 104.179 201.5 C 102.851 198.678 102.225 196.826 100.954 191.958 L 99.376 185.917 L 101.103 174.721 C 102.773 163.897 102.847 163.542 103.33 164.025 C 104.219 164.914 105.983 171.974 106.711 177.554 C 107.316 182.189 107.51 183.02 108.757 186.316 L 110.135 189.958 L 110.138 193.704 L 110.141 197.45 L 108.422 201.223 C 107.262 203.769 106.561 204.996 106.265 204.998 C 105.972 205 105.281 203.842 104.179 201.5 Z" style="stroke-width: 1;"/>
  <path id="lats1" class="muscle" d="M 101.512 115.16 C 100.678 113.308 100.402 112.21 99.947 108.914 C 99.558 106.101 99.102 104.092 98.407 102.141 L 97.42 99.368 L 94.51 97.637 C 92.91 96.684 91.57 95.883 91.532 95.857 C 91.459 95.805 100.042 79.782 100.679 78.781 C 101.059 78.184 101.063 78.185 105.666 80.243 L 110.272 82.302 L 112.172 81.733 C 113.216 81.419 114.123 81.216 114.188 81.28 C 114.339 81.431 111.821 99.469 111.516 100.421 C 111.388 100.819 109.682 103.364 107.725 106.076 L 104.166 111.008 L 103.518 114.208 C 103.162 115.968 102.793 117.408 102.698 117.408 C 102.603 117.408 102.07 116.397 101.512 115.16 Z" style="stroke-width: 1;"/>
  <path id="lats2" class="muscle" d="M 75.725 117.751 C 75.66 117.638 75.387 116.063 75.12 114.25 L 74.634 110.955 L 70.916 105.908 L 67.197 100.86 L 66.039 91.217 C 65.401 85.914 64.926 81.528 64.982 81.47 C 65.038 81.413 66.169 81.576 67.496 81.833 L 69.908 82.3 L 73.679 80.339 C 75.754 79.261 77.565 78.45 77.705 78.536 C 77.845 78.623 79.008 80.639 80.291 83.017 C 81.573 85.395 83.614 89.164 84.825 91.391 L 87.029 95.441 L 83.07 99.079 L 79.112 102.718 L 79.11 107.007 L 79.108 111.297 L 77.705 114.627 C 76.406 117.711 76.039 118.291 75.726 117.751 L 75.725 117.751 Z" style="stroke-width: 1;"/>
  <path id="upper_back1" class="muscle" d="M 104.781 77.866 C 100.766 76.014 100.66 75.943 100.586 75.064 C 100.544 74.567 100.999 71.536 101.599 68.327 C 102.524 63.372 102.826 62.249 103.607 60.864 L 104.525 59.234 L 110.007 63.625 C 113.023 66.041 115.661 68.185 115.87 68.39 C 116.193 68.707 116.158 69.368 115.632 72.835 L 115.014 76.907 L 113.614 78.348 C 112.225 79.778 112.2 79.79 110.556 79.778 C 109.1 79.768 108.402 79.537 104.781 77.866 Z" style="stroke-width: 1;"/>
  <path id="upper_back2" class="muscle" d="M 65.12 78.111 L 63.642 76.432 L 63.392 73.512 C 63.255 71.905 63.223 69.815 63.322 68.866 L 63.501 67.141 L 66.448 65.663 C 69.132 64.317 69.598 63.963 71.672 61.691 C 72.925 60.319 74.043 59.196 74.158 59.196 C 74.272 59.196 74.987 60.71 75.747 62.56 L 77.128 65.923 L 77.325 71.016 L 77.522 76.109 L 73.441 77.95 C 70.143 79.438 69.094 79.791 67.979 79.791 C 66.633 79.79 66.561 79.748 65.12 78.111 Z" style="stroke-width: 1;"/>
  <path id="lower_back" class="muscle" d="M 87.077 126.218 L 85.299 123.812 L 81.448 122.084 C 79.33 121.133 77.558 120.323 77.511 120.284 C 77.464 120.244 78.113 118.842 78.953 117.167 L 80.48 114.122 L 80.48 110.132 L 80.48 106.141 L 81.69 103.552 L 82.9 100.963 L 86.436 99.191 L 89.971 97.419 L 93.024 99.328 L 96.076 101.236 L 97.202 104.52 C 98.257 107.595 98.328 107.998 98.328 110.865 L 98.328 113.926 L 99.717 116.504 C 100.72 118.363 101.083 119.322 101.022 119.945 C 100.939 120.788 100.879 120.824 98.53 121.412 C 95.96 122.056 95.953 122.062 89.816 127.736 L 88.855 128.624 L 87.077 126.218 Z" style="stroke-width: 1;"/>
  <path id="trapezius1" class="muscle" d="M 84.161 85.362 L 79.498 75.932 L 79.014 69.327 L 78.53 62.722 L 76.522 59.32 C 75.417 57.449 74.59 55.843 74.682 55.751 C 74.774 55.658 78.105 54.652 82.084 53.514 L 89.318 51.445 L 96.639 53.519 C 100.665 54.659 104.022 55.655 104.098 55.731 C 104.175 55.808 103.332 57.601 102.227 59.717 L 100.216 63.564 L 99.245 71.194 L 98.275 78.824 L 94.073 86.726 C 91.17 92.187 89.71 94.654 89.348 94.71 C 88.924 94.777 87.936 92.995 84.161 85.362 Z" style="stroke-width: 1;"/>
  <path id="trapezius2" class="muscle" d="M 94.649 51.124 L 90.406 49.805 L 90.406 47.132 L 90.406 44.458 L 91.485 44.169 C 93.806 43.545 93.58 43.381 96.71 47.964 C 98.305 50.3 99.611 52.274 99.611 52.351 C 99.611 52.618 98.863 52.433 94.649 51.124 Z" style="stroke-width: 1;"/>
  <path id="trapezius3" class="muscle" d="M 78.194 52.164 C 78.504 51.773 80.165 49.81 81.887 47.801 L 85.016 44.149 L 86.561 44.149 L 88.105 44.149 L 88.105 47.014 L 88.105 49.879 L 87.027 50.171 C 85.3 50.638 78.811 52.49 78.194 52.692 C 77.636 52.875 77.636 52.871 78.194 52.164 Z" style="stroke-width: 1;"/>
  <path id="triceps1" class="muscle" d="M 52.005 100.309 C 52.652 98.781 53.589 92.619 53.589 89.896 L 53.589 89.02 L 51.498 89.02 L 49.407 89.02 L 48.758 91.536 C 48.289 93.357 48.111 94.859 48.117 96.968 C 48.124 99.753 48.093 99.904 47.415 100.348 C 47.025 100.603 46.637 100.813 46.552 100.813 C 46.468 100.813 46.399 99.203 46.399 97.235 L 46.399 93.657 L 48.402 87.857 C 49.559 84.508 51.058 80.824 51.95 79.138 L 53.495 76.22 L 56.347 74.721 C 57.915 73.896 59.587 73.217 60.061 73.211 L 60.924 73.201 L 62.117 78.369 L 63.311 83.538 L 61.869 88.22 C 60.581 92.404 60.148 93.385 57.8 97.426 L 55.171 101.949 L 53.238 101.956 L 51.305 101.963 L 52.005 100.309 Z" style="stroke-width: 1;"/>
  <path id="triceps2" class="muscle" d="M 121.862 98.425 L 119.233 94.916 L 117.465 89.232 L 115.698 83.549 L 116.573 79.021 C 117.053 76.531 117.513 74.203 117.595 73.847 C 117.831 72.812 119.009 73.026 122.284 74.701 L 125.254 76.22 L 127.717 81.11 C 129.943 85.527 130.311 86.5 131.525 91.177 L 132.869 96.354 L 132.419 98.568 L 131.969 100.781 L 131.205 100.315 C 130.449 99.854 130.439 99.804 130.316 95.944 C 130.233 93.366 130.025 91.527 129.703 90.53 L 129.215 89.02 L 127.069 89.02 C 125.888 89.02 124.922 89.059 124.922 89.108 C 124.922 90.61 126.251 99.086 126.657 100.176 C 126.969 101.013 127.224 101.757 127.224 101.83 C 127.224 101.903 126.609 101.956 125.857 101.948 L 124.491 101.933 L 121.862 98.425 Z" style="stroke-width: 1;"/>
  <path id="shoulder3" class="muscle" d="M 51.288 74.723 C 51.288 74.578 51.547 72.59 51.863 70.306 C 52.408 66.369 52.515 66.003 53.925 63.276 L 55.412 60.4 L 59.175 58.63 L 62.937 56.861 L 67.521 56.406 C 70.042 56.156 72.161 56.009 72.231 56.079 C 72.3 56.148 72.179 56.952 71.962 57.866 L 71.566 59.526 L 67.12 62.339 C 64.674 63.886 62.56 65.264 62.423 65.401 C 62.286 65.539 61.892 66.796 61.549 68.197 L 60.924 70.742 L 56.466 72.71 C 54.014 73.792 51.846 74.747 51.648 74.832 C 51.45 74.917 51.288 74.868 51.288 74.723 Z" style="stroke-width: 1;"/>
  <path id="shoulder4" class="muscle" d="M 123.08 72.613 C 120.611 71.263 119.678 70.899 118.694 70.899 L 117.444 70.899 L 117.444 68.357 L 117.444 65.815 L 114.511 64.282 C 112.479 63.219 110.801 62.051 109.046 60.478 C 106.793 58.457 106.514 58.098 106.514 57.218 L 106.514 56.229 L 110.757 56.242 L 114.999 56.254 L 119.292 58.471 L 123.585 60.688 L 125.424 64.858 L 127.263 69.029 L 127.028 71.595 C 126.898 73.006 126.663 74.199 126.504 74.244 C 126.346 74.29 124.805 73.556 123.08 72.613 Z" style="stroke-width: 1;"/>
  <path id="forearm3" class="muscle" d="M 31.837 138.346 C 30.819 138.107 29.912 137.838 29.822 137.747 C 29.731 137.656 29.978 136.763 30.371 135.763 C 30.764 134.762 32.269 130.049 33.716 125.29 C 35.53 119.323 37.22 114.893 39.162 111.02 C 42.076 105.206 44.136 101.774 44.711 101.774 C 44.893 101.774 45.29 102.316 45.592 102.979 C 46.014 103.906 46.428 104.15 47.389 104.036 C 48.386 103.917 48.752 103.511 49.214 102.009 L 49.791 100.131 L 49.84 102.126 C 49.889 104.085 49.92 104.122 51.533 104.122 C 53.129 104.122 53.177 104.175 53.177 105.942 C 53.177 108.802 51.252 112.482 44.559 122.419 C 40.121 129.008 37.962 132.688 37.022 135.264 C 35.582 139.213 35.569 139.22 31.837 138.346 Z" style="stroke-width: 1;"/>
  <path id="forearm4" class="muscle" d="M 141.103 134.06 C 140.104 131.929 136.884 126.593 133.946 122.203 C 128.604 114.217 125.498 108.073 125.498 105.494 C 125.498 104.239 125.638 104.122 127.141 104.122 C 128.148 104.122 128.782 103.895 128.776 103.535 C 128.766 102.787 127.481 94.912 127.092 93.204 C 126.915 92.428 126.994 91.912 127.29 91.912 C 127.952 91.912 128.144 92.734 128.801 98.381 C 129.267 102.379 129.533 103.325 130.352 103.899 C 131.726 104.861 131.86 104.811 133.041 102.9 L 134.086 101.209 L 135.938 104.122 C 138.441 108.058 143.39 120.079 146.204 129.058 C 147.471 133.103 148.509 136.523 148.509 136.658 C 148.509 137.074 145.626 137.935 144.235 137.935 C 143.046 137.935 142.743 137.56 141.103 134.06 Z" style="stroke-width: 1;"/>
  <path id="human_body" class="muscle" d="M 55.27 274.051 L 52.584 274.051 L 51.255 272.45 L 49.927 270.85 L 50.159 259.7 L 50.39 248.551 L 51.446 233.634 L 52.502 218.717 L 54.928 211.991 L 57.355 205.266 L 57.922 200.441 L 58.489 195.617 L 59.164 194.584 L 59.839 193.551 L 59.892 169.051 L 59.944 144.551 L 63.197 135.051 L 66.45 125.551 L 66.984 117.051 L 67.518 108.551 L 65.929 102.591 L 64.339 96.631 L 64.292 93.091 L 64.246 89.551 L 61.677 94.551 L 59.108 99.551 L 57.809 101.051 L 56.511 102.551 L 54.383 108.892 L 52.256 115.233 L 46.783 123.044 L 41.309 130.856 L 39.198 135.936 L 37.087 141.016 L 38.713 147.489 L 40.339 153.962 L 40.339 155.006 L 40.339 156.051 L 38.416 156.051 L 36.494 156.051 L 35.299 152.431 L 34.105 148.812 L 33.213 150.181 L 32.321 151.551 L 30.759 156.801 L 29.197 162.051 L 27.268 162.051 L 25.339 162.051 L 25.339 160.36 L 25.339 158.669 L 23.991 160.513 L 22.642 162.356 L 21.491 161.645 L 20.339 160.933 L 20.339 159.492 L 20.339 158.051 L 18.839 158.051 L 17.339 158.051 L 17.339 156.742 L 17.339 155.433 L 18.807 153.492 L 20.275 151.551 L 20.307 150.601 L 20.339 149.651 L 19.139 150.851 L 17.939 152.051 L 16.639 152.051 L 15.339 152.051 L 15.339 150.767 L 15.339 149.483 L 20.918 144.017 L 26.498 138.551 L 28.335 135.004 L 30.172 131.458 L 30.891 127.504 L 31.609 123.551 L 34.559 116.051 L 37.508 108.551 L 40.923 102.92 L 44.339 97.289 L 44.36 95.42 L 44.381 93.551 L 46.939 86.551 L 49.496 79.551 L 49.894 72.797 L 50.292 66.043 L 51.713 63.294 L 53.134 60.546 L 55.036 58.825 L 56.938 57.104 L 61.264 55.577 L 65.59 54.051 L 68.962 54.051 L 72.333 54.051 L 76.336 50.435 L 80.339 46.818 L 80.339 45.057 L 80.339 43.295 L 78.723 39.428 L 77.107 35.561 L 77.584 28.127 L 78.061 20.693 L 81.685 17.372 L 85.31 14.051 L 88.777 14.051 L 92.245 14.051 L 94.778 15.205 L 97.311 16.359 L 98.953 18.865 L 100.595 21.371 L 101.1 27.658 L 101.604 33.944 L 99.901 39.15 L 98.199 44.356 L 98.734 46.49 L 99.27 48.624 L 102.551 51.05 L 105.833 53.476 L 111.559 54.151 L 117.284 54.826 L 121.062 56.786 L 124.839 58.746 L 126.678 61.894 L 128.517 65.041 L 128.845 72.296 L 129.173 79.551 L 131.746 85.051 L 134.319 90.551 L 134.329 93.69 L 134.339 96.829 L 138.37 103.69 L 142.401 110.551 L 146.373 123.093 L 150.344 135.635 L 156.91 142.829 L 163.475 150.022 L 162.848 151.037 L 162.221 152.051 L 160.745 152.051 L 159.269 152.051 L 160.347 154.066 L 161.426 156.081 L 159.882 156.673 L 158.339 157.265 L 158.339 158.599 L 158.339 159.933 L 157.177 160.651 L 156.015 161.369 L 154.177 159.099 L 152.339 156.829 L 152.339 159.44 L 152.339 162.051 L 150.867 162.051 L 149.395 162.051 L 147.852 156.801 L 146.309 151.551 L 145.468 150.225 L 144.626 148.898 L 142.43 152.622 L 140.233 156.345 L 139.29 155.402 L 138.347 154.459 L 140.005 146.82 L 141.663 139.18 L 135.984 129.664 L 130.305 120.148 L 129.308 119.532 L 128.31 118.915 L 126.46 115.233 L 124.609 111.551 L 123.948 107.902 L 123.286 104.254 L 121.295 101.722 L 119.304 99.191 L 117.378 94.89 L 115.453 90.59 L 115.023 92.07 L 114.592 93.551 L 113.215 100.051 L 111.839 106.551 L 111.954 114.551 L 112.07 122.551 L 115.771 136.551 L 119.473 150.551 L 119.203 170.551 L 118.932 190.551 L 119.777 197.551 L 120.622 204.551 L 123.047 210.051 L 125.473 215.551 L 126.409 223.051 L 127.345 230.551 L 127.992 251.185 L 128.639 271.82 L 126.43 273.002 L 124.222 274.184 L 121.187 273.518 L 118.153 272.851 L 116.86 269.701 L 115.567 266.551 L 114.855 263.219 L 114.144 259.887 L 116.344 257.545 L 118.544 255.203 L 117.302 251.377 L 116.061 247.551 L 111.597 238.616 L 107.133 229.681 L 106.81 220.414 L 106.487 211.147 L 103.535 204.849 L 100.583 198.551 L 98.845 191.051 L 97.107 183.551 L 94.135 175.051 L 91.164 166.551 L 90.609 158.801 L 90.053 151.051 L 89.327 151.051 L 88.602 151.051 L 88.135 158.333 L 87.667 165.614 L 84.095 177.083 L 80.523 188.551 L 79.313 194.051 L 78.103 199.551 L 75.616 204.551 L 73.129 209.551 L 72.254 220.051 L 71.378 230.551 L 65.858 241.326 L 60.339 252.101 L 60.339 253.854 L 60.339 255.606 L 62.339 257.319 L 64.339 259.031 L 64.339 260.915 L 64.339 262.799 L 62.813 267.175 L 61.286 271.551 L 59.621 272.801 L 57.957 274.051 L 55.27 274.051 Z M 55.761 272.051 L 57.939 272.051 L 59.139 270.851 L 60.339 269.651 L 60.339 267.41 L 60.339 265.169 L 61.339 264.551 L 62.339 263.933 L 62.339 261.551 L 62.339 259.169 L 61.227 258.482 L 60.115 257.795 L 59.149 259.173 L 58.183 260.551 L 58.823 255.051 L 59.462 249.551 L 63.012 242.548 L 66.561 235.545 L 63.2 231.878 L 59.839 228.211 L 56.415 231.272 L 52.991 234.334 L 52.08 251.738 L 51.169 269.141 L 52.376 270.596 L 53.584 272.051 L 55.761 272.051 Z M 123.466 272.021 L 125.094 272.051 L 126.086 270.801 L 127.079 269.551 L 126.781 256.643 L 126.483 243.736 L 125.795 238.643 L 125.107 233.551 L 121.973 230.897 L 118.839 228.242 L 115.503 231.866 L 112.167 235.49 L 113.777 238.216 L 115.387 240.942 L 117.863 247.519 L 120.339 254.097 L 120.339 257.196 L 120.339 260.296 L 118.997 259.182 L 117.655 258.068 L 116.997 258.726 L 116.339 259.384 L 116.339 261.659 L 116.339 263.933 L 117.339 264.551 L 118.339 265.169 L 118.339 267.56 L 118.339 269.952 L 120.089 270.971 L 121.839 271.99 L 123.466 272.021 Z M 68.625 231.508 L 69.721 229.551 L 70.487 218.167 L 71.252 206.783 L 69.678 203.739 L 68.103 200.695 L 66.702 204.623 L 65.301 208.551 L 63.32 216.84 L 61.339 225.128 L 61.339 225.984 L 61.339 226.839 L 64.433 230.152 L 67.528 233.465 L 68.625 231.508 Z M 112.076 231.856 L 113.627 231.551 L 115.597 228.909 L 117.568 226.267 L 115.509 217.409 L 113.449 208.551 L 111.997 204.551 L 110.544 200.551 L 109.082 204.051 L 107.619 207.551 L 108.314 218.63 L 109.01 229.709 L 109.768 230.935 L 110.525 232.162 L 112.076 231.856 Z M 55.228 230.111 L 57.293 229.005 L 58.489 226.778 L 59.685 224.551 L 62.142 215.051 L 64.599 205.551 L 64.67 201.802 L 64.741 198.054 L 63.627 196.939 L 62.513 195.825 L 61.426 196.497 L 60.339 197.169 L 60.339 200.193 L 60.339 203.218 L 57.476 210.384 L 54.613 217.551 L 53.888 224.383 L 53.162 231.216 L 55.228 230.111 Z M 123.729 230.051 L 125.149 230.051 L 124.597 223.801 L 124.045 217.551 L 121.192 210.384 L 118.339 203.218 L 118.339 200.257 L 118.339 197.296 L 116.967 196.157 L 115.595 195.019 L 114.331 198.069 L 113.068 201.119 L 115.14 208.335 L 117.212 215.551 L 117.835 219.635 L 118.459 223.719 L 120.384 226.885 L 122.309 230.051 L 123.729 230.051 Z M 74.968 201.371 L 77.105 196.497 L 78.315 190.667 L 79.525 184.837 L 78.473 178.694 L 77.421 172.551 L 76.784 166.607 L 76.146 160.662 L 74.352 165.756 L 72.559 170.85 L 71.838 177.201 L 71.118 183.551 L 69.728 186.923 L 68.339 190.295 L 68.339 193.646 L 68.339 196.997 L 70.585 201.621 L 72.832 206.246 L 74.968 201.371 Z M 106.274 205.025 L 106.839 204.999 L 108.589 201.198 L 110.339 197.396 L 110.339 193.744 L 110.339 190.091 L 108.915 186.321 L 107.491 182.551 L 106.847 177.551 L 106.203 172.551 L 105.103 168.551 L 104.002 164.551 L 103.385 163.815 L 102.767 163.079 L 101.001 174.47 L 99.235 185.861 L 100.828 192.007 L 102.42 198.154 L 104.065 201.602 L 105.709 205.051 L 106.274 205.025 Z M 65.946 197.051 L 66.339 197.051 L 66.339 194.992 L 66.339 192.933 L 65.383 193.524 L 64.426 194.115 L 64.99 195.583 L 65.553 197.051 L 65.946 197.051 Z M 112.78 196.051 L 113.221 196.051 L 113.796 195.12 L 114.372 194.189 L 113.355 193.561 L 112.339 192.933 L 112.339 194.492 L 112.339 196.051 L 112.78 196.051 Z M 65.087 190.474 L 68.336 186.721 L 69.332 183.136 L 70.328 179.551 L 70.334 176.39 L 70.34 173.229 L 72.327 166.89 L 74.314 160.551 L 74.327 159.314 L 74.34 158.078 L 71.008 156.686 L 67.676 155.293 L 65.508 152.537 L 63.34 149.781 L 63.276 147.166 L 63.213 144.551 L 62.237 146.993 L 61.262 149.435 L 61.551 171.831 L 61.84 194.227 L 65.087 190.474 Z M 117.403 194.051 L 118.289 194.051 L 117.265 191.358 L 116.241 188.664 L 116.933 170.526 L 117.625 152.387 L 116.843 148.469 L 116.062 144.551 L 115.119 148.051 L 114.176 151.551 L 112.132 153.749 L 110.088 155.947 L 107.213 156.579 L 104.339 157.21 L 104.339 158.505 L 104.339 159.799 L 105.752 163.806 L 107.166 167.812 L 108.35 175.622 L 109.534 183.433 L 110.338 185.548 L 111.142 187.664 L 113.829 190.857 L 116.517 194.051 L 117.403 194.051 Z M 82.998 174.051 L 85.518 167.551 L 86.044 162.535 L 86.57 157.518 L 81.959 157.885 L 77.347 158.252 L 77.936 162.401 L 78.525 166.551 L 79.424 172.551 L 80.324 178.551 L 80.401 179.551 L 80.478 180.551 L 82.998 174.051 Z M 98.093 179.631 L 98.454 179.269 L 99.878 169.91 L 101.303 160.551 L 101.321 159.402 L 101.339 158.252 L 96.839 157.894 L 92.339 157.537 L 92.322 160.544 L 92.305 163.551 L 95.018 171.771 L 97.731 179.992 L 98.093 179.631 Z M 27.839 159.051 L 28.339 159.051 L 28.339 158.551 L 28.339 158.051 L 27.839 158.051 L 27.339 158.051 L 27.339 158.551 L 27.339 159.051 L 27.839 159.051 Z M 25.839 158.051 L 26.339 158.051 L 26.339 157.551 L 26.339 157.051 L 25.839 157.051 L 25.339 157.051 L 25.339 157.551 L 25.339 158.051 L 25.839 158.051 Z M 23.839 157.051 L 24.339 157.051 L 24.339 156.551 L 24.339 156.051 L 23.839 156.051 L 23.339 156.051 L 23.339 156.551 L 23.339 157.051 L 23.839 157.051 Z M 149.943 156.78 L 150.547 156.176 L 150.022 154.863 L 149.497 153.551 L 149.418 155.468 L 149.339 157.384 L 149.943 156.78 Z M 29.006 155.718 L 29.672 155.051 L 29.006 154.384 L 28.339 153.718 L 28.339 155.051 L 28.339 156.384 L 29.006 155.718 Z M 79.754 155.801 L 85.668 155.551 L 86.928 152.051 L 88.187 148.551 L 88.263 140.205 L 88.339 131.86 L 86.703 129.091 L 85.068 126.322 L 82.299 124.686 L 79.53 123.051 L 78.138 123.051 L 76.745 123.051 L 73.199 126.801 L 69.654 130.551 L 67.497 136.654 L 65.339 142.756 L 65.339 145.357 L 65.339 147.957 L 66.472 150.443 L 67.605 152.93 L 70.722 154.49 L 73.839 156.051 L 79.754 155.801 Z M 98.906 156.051 L 104.537 156.051 L 107.845 154.481 L 111.154 152.911 L 112.359 150.003 L 113.563 147.096 L 113.075 143.823 L 112.587 140.551 L 110.479 135.11 L 108.372 129.669 L 104.684 125.892 L 100.996 122.116 L 97.069 124.323 L 93.143 126.529 L 91.741 129.241 L 90.339 131.952 L 90.339 139.954 L 90.339 147.957 L 91.258 150.254 L 92.176 152.551 L 92.726 154.301 L 93.276 156.051 L 98.906 156.051 Z M 26.097 152.801 L 27.802 150.051 L 28.57 150.051 L 29.339 150.051 L 29.343 151.801 L 29.347 153.551 L 31.459 150.085 L 33.572 146.62 L 35.611 149.085 L 37.649 151.551 L 37.008 149.051 L 36.367 146.551 L 36.353 144.872 L 36.339 143.194 L 34.768 141.622 L 33.196 140.051 L 29.956 140.051 L 26.715 140.051 L 24.553 142.976 L 22.39 145.901 L 23.508 146.274 L 24.626 146.647 L 23.428 149.099 L 22.229 151.551 L 23.774 149.624 L 25.319 147.697 L 25.991 148.37 L 26.664 149.042 L 25.502 151.594 L 24.339 154.145 L 24.366 154.848 L 24.393 155.551 L 26.097 152.801 Z M 153.839 155.051 L 154.339 155.051 L 154.339 154.551 L 154.339 154.051 L 153.839 154.051 L 153.339 154.051 L 153.339 154.551 L 153.339 155.051 L 153.839 155.051 Z M 158.17 154.048 L 158.502 154.051 L 156.42 150.683 L 154.339 147.315 L 154.339 146.124 L 154.339 144.933 L 155.339 145.551 L 156.339 146.169 L 156.339 145.645 L 156.339 145.121 L 153.295 141.653 L 150.25 138.186 L 147.045 139.255 L 143.839 140.324 L 143.217 140.937 L 142.595 141.551 L 141.968 146.051 L 141.342 150.551 L 142.39 148.801 L 143.438 147.051 L 144.707 147.051 L 145.976 147.051 L 147.594 150.301 L 149.211 153.551 L 149.275 151.801 L 149.339 150.051 L 149.979 150.051 L 150.618 150.051 L 151.994 151.801 L 153.37 153.551 L 152.806 150.551 L 152.242 147.551 L 155.04 150.798 L 157.839 154.045 L 158.17 154.048 Z M 140.839 152.051 L 141.339 152.051 L 141.339 151.551 L 141.339 151.051 L 140.839 151.051 L 140.339 151.051 L 140.339 151.551 L 140.339 152.051 L 140.839 152.051 Z M 34.388 138.935 L 35.937 139.051 L 37.253 135.411 L 38.57 131.77 L 44.729 122.661 L 50.889 113.551 L 52.114 110.754 L 53.339 107.957 L 53.339 106.004 L 53.339 104.051 L 51.839 104.051 L 50.339 104.051 L 50.249 100.801 L 50.158 97.551 L 49.22 100.801 L 48.282 104.051 L 47.36 104.051 L 46.438 104.051 L 45.555 102.473 L 44.672 100.894 L 43.147 103.223 L 41.623 105.551 L 38.913 110.902 L 36.203 116.252 L 33.411 125.402 L 30.619 134.551 L 29.906 136.213 L 29.192 137.876 L 31.015 138.347 L 32.839 138.819 L 34.388 138.935 Z M 65.13 137.68 L 66.261 136.981 L 66.94 133.364 L 67.618 129.747 L 71.095 125.899 L 74.572 122.051 L 72.705 122.066 L 70.839 122.082 L 69.812 122.816 L 68.784 123.551 L 66.933 129.551 L 65.082 135.551 L 64.54 136.965 L 63.999 138.379 L 65.13 137.68 Z M 113.849 137.874 L 114.303 137.42 L 112.34 130.556 L 110.378 123.693 L 109.108 122.887 L 107.839 122.082 L 106.011 122.066 L 104.183 122.051 L 107.761 126.231 L 111.339 130.411 L 111.339 131.666 L 111.339 132.921 L 112.367 135.625 L 113.395 138.328 L 113.849 137.874 Z M 144.442 138.051 L 146.175 138.051 L 147.556 137.521 L 148.936 136.992 L 146.526 129.271 L 144.117 121.551 L 141.158 114.451 L 138.2 107.351 L 136.214 104.086 L 134.228 100.82 L 132.935 102.588 L 131.642 104.356 L 130.607 103.717 L 129.573 103.077 L 128.886 97.58 L 128.199 92.082 L 127.111 91.41 L 126.024 90.738 L 126.745 93.145 L 127.466 95.551 L 128.033 99.801 L 128.599 104.051 L 126.969 104.051 L 125.339 104.051 L 125.339 105.583 L 125.339 107.115 L 126.809 110.633 L 128.279 114.152 L 133.719 122.351 L 139.159 130.551 L 140.934 134.301 L 142.709 138.051 L 144.442 138.051 Z M 92.564 125.463 L 96.288 122.102 L 98.814 121.468 L 101.339 120.834 L 101.339 120.057 L 101.339 119.28 L 99.845 116.415 L 98.351 113.551 L 98.345 110.45 L 98.339 107.349 L 97.258 104.247 L 96.176 101.144 L 93.066 99.175 L 89.956 97.206 L 86.345 99.048 L 82.733 100.891 L 81.536 103.518 L 80.339 106.145 L 80.339 110.148 L 80.339 114.15 L 78.765 117.194 L 77.191 120.237 L 77.515 120.424 L 77.839 120.61 L 81.497 122.271 L 85.155 123.931 L 86.997 126.378 L 88.839 128.825 L 92.564 125.463 Z M 70.921 120.658 L 72.502 120.051 L 73.197 120.051 L 73.892 120.051 L 73.531 116.264 L 73.17 112.478 L 71.276 110.014 L 69.383 107.551 L 69.361 114.408 L 69.339 121.265 L 70.921 120.658 Z M 109.06 120.935 L 110.28 121.051 L 110.06 114.061 L 109.839 107.071 L 109.657 107.061 L 109.475 107.051 L 107.493 109.834 L 105.511 112.618 L 104.831 116.243 L 104.151 119.868 L 105.995 120.343 L 107.839 120.819 L 109.06 120.935 Z M 76.021 118.051 L 76.441 118.051 L 77.89 114.583 L 79.339 111.115 L 79.339 106.929 L 79.339 102.744 L 83.276 99.109 L 87.212 95.475 L 82.624 87.013 L 78.036 78.551 L 77.869 78.316 L 77.702 78.081 L 73.771 80.116 L 69.839 82.151 L 67.269 81.662 L 64.699 81.173 L 65.885 91.045 L 67.07 100.917 L 70.761 105.945 L 74.452 110.973 L 75.026 114.512 L 75.601 118.051 L 76.021 118.051 Z M 103.543 114.731 L 104.294 111.119 L 107.988 105.976 L 111.683 100.833 L 112.976 91.692 L 114.268 82.551 L 114.304 81.734 L 114.339 80.916 L 112.366 81.542 L 110.393 82.169 L 105.711 80.098 L 101.03 78.027 L 100.802 78.289 L 100.575 78.551 L 95.911 87.217 L 91.248 95.884 L 94.251 97.658 L 97.254 99.432 L 98.215 101.992 L 99.177 104.551 L 99.764 108.768 L 100.352 112.986 L 101.572 115.664 L 102.793 118.342 L 103.543 114.731 Z M 53.19 102.051 L 55.255 102.051 L 57.898 97.541 L 60.541 93.031 L 62.004 88.291 L 63.467 83.551 L 62.243 78.301 L 61.019 73.051 L 60.13 73.051 L 59.24 73.051 L 56.306 74.568 L 53.373 76.085 L 51.746 79.231 L 50.119 82.377 L 48.229 87.87 L 46.339 93.364 L 46.339 97.267 L 46.339 101.169 L 47.339 100.551 L 48.339 99.933 L 48.353 96.742 L 48.366 93.551 L 48.969 91.301 L 49.572 89.051 L 51.583 89.051 L 53.593 89.051 L 53.087 93.801 L 52.581 98.551 L 51.853 100.301 L 51.125 102.051 L 53.19 102.051 Z M 125.997 102.051 L 127.553 102.051 L 126.875 100.301 L 126.197 98.551 L 125.629 93.801 L 125.06 89.051 L 127.083 89.051 L 129.106 89.051 L 129.709 91.301 L 130.312 93.551 L 130.325 96.742 L 130.339 99.933 L 131.225 100.48 L 132.11 101.028 L 132.56 98.676 L 133.009 96.325 L 131.698 91.202 L 130.387 86.08 L 127.858 81.088 L 125.328 76.097 L 122.383 74.574 L 119.438 73.051 L 118.521 73.051 L 117.604 73.051 L 116.57 78.279 L 115.536 83.507 L 117.342 89.31 L 119.148 95.112 L 121.794 98.582 L 124.441 102.051 L 125.997 102.051 Z M 51.433 95.131 L 52.4 92.712 L 51.369 91.681 L 50.339 90.651 L 50.402 94.101 L 50.466 97.551 L 51.433 95.131 Z M 89.332 95.032 L 89.839 95.012 L 94.121 86.97 L 98.404 78.927 L 99.371 71.295 L 100.339 63.664 L 102.385 59.737 L 104.432 55.811 L 104.135 55.609 L 103.839 55.408 L 96.589 53.344 L 89.339 51.281 L 82.089 53.344 L 74.839 55.408 L 74.548 55.603 L 74.258 55.799 L 76.324 59.302 L 78.391 62.805 L 78.943 69.678 L 79.494 76.551 L 84.16 85.801 L 88.825 95.051 L 89.332 95.032 Z M 67.885 80.051 L 69.12 80.051 L 73.425 78.124 L 77.729 76.197 L 77.447 70.884 L 77.165 65.571 L 75.718 62.108 L 74.271 58.645 L 71.773 61.339 L 69.275 64.033 L 66.307 65.568 L 63.339 67.102 L 63.188 68.827 L 63.037 70.551 L 63.276 73.551 L 63.515 76.551 L 65.082 78.301 L 66.649 80.051 L 67.885 80.051 Z M 110.517 79.967 L 112.196 80.051 L 113.629 78.618 L 115.062 77.185 L 115.755 72.868 L 116.447 68.551 L 113.643 66.336 L 110.839 64.122 L 107.649 61.54 L 104.459 58.959 L 103.495 60.76 L 102.531 62.561 L 101.435 68.49 L 100.339 74.418 L 100.339 75.197 L 100.339 75.975 L 104.589 77.929 L 108.839 79.882 L 110.517 79.967 Z M 51.934 74.864 L 52.839 74.408 L 56.986 72.618 L 61.133 70.828 L 61.735 68.19 L 62.337 65.551 L 67.082 62.551 L 71.826 59.551 L 72.182 57.664 L 72.538 55.777 L 67.689 56.246 L 62.839 56.714 L 59.045 58.517 L 55.251 60.321 L 53.778 63.169 L 52.305 66.016 L 51.668 70.668 L 51.03 75.321 L 51.934 74.864 Z M 127.15 71.961 L 127.461 69.115 L 125.522 64.731 L 123.582 60.347 L 119.145 58.199 L 114.707 56.051 L 110.523 56.051 L 106.339 56.051 L 106.339 57.096 L 106.339 58.142 L 108.652 60.346 L 110.965 62.551 L 114.152 64.254 L 117.339 65.958 L 117.339 68.504 L 117.339 71.051 L 118.604 71.051 L 119.87 71.051 L 123.354 72.929 L 126.839 74.807 L 127.15 71.961 Z M 78.532 52.807 L 80.214 52.162 L 84.276 51.068 L 88.339 49.974 L 88.339 47.012 L 88.339 44.051 L 86.589 44.084 L 84.839 44.117 L 80.844 48.785 L 76.85 53.453 L 78.532 52.807 Z M 100.096 52.947 L 100.354 53.051 L 97.096 48.227 L 93.839 43.402 L 92.089 43.843 L 90.339 44.284 L 90.339 47.109 L 90.339 49.935 L 95.089 51.389 L 99.839 52.843 L 100.096 52.947 Z M 96.28 43.051 L 97.339 43.051 L 97.339 42.051 L 97.339 41.051 L 96.898 41.051 L 96.457 41.051 L 95.839 42.051 L 95.221 43.051 L 96.28 43.051 Z M 89.007 42.019 L 92.175 42.051 L 93.8 41.428 L 95.424 40.804 L 97.381 36.967 L 99.339 33.131 L 99.339 28.638 L 99.339 24.145 L 98.144 21.523 L 96.95 18.901 L 94.194 17.476 L 91.438 16.051 L 89.339 16.051 L 87.24 16.051 L 84.484 17.476 L 81.728 18.901 L 80.534 21.523 L 79.339 24.145 L 79.339 29.375 L 79.339 34.606 L 81.043 37.078 L 82.747 39.551 L 84.293 40.769 L 85.839 41.987 L 89.007 42.019 Z" style="stroke-width: 1;"/>
</svg>