<?xml version="1.0" encoding="utf-8"?>
<svg version="1.1" id="svg1" xmlns="http://www.w3.org/2000/svg">
  <defs>
    <style type="text/css" id="style1">
      .land
      {
      fill: #CCCCCC;
      fill-opacity: 1;
      stroke:white;
      stroke-opacity: 1;
      stroke-width:0.5;
      }
    </style>
  </defs>
  <path id="chest1" class="muscle" d="m 93.273305,82.263575 c -1.717147,-0.931567 -1.747152,-1.051263 -1.706402,-6.807179 l 0.04148,-5.858938 3.556917,-3.019068 c 5.95225,-5.0522 9.27982,-4.068775 15.09834,4.462149 4.5232,6.631768 4.43321,7.365886 -1.24618,10.166521 -3.63512,1.792559 -4.79754,2.052395 -9.082459,2.030204 -3.106938,-0.01609 -5.556533,-0.374129 -6.661695,-0.973689 z"/>
  <path id="chest2" class="muscle" d="m 73.029874,83.199584 c -1.705755,-0.265227 -6.109765,-2.499225 -8.167022,-4.142841 -0.988028,-0.789372 -1.823491,-1.454026 -1.856584,-1.477011 -0.03309,-0.02298 1.276749,-2.129294 2.91076,-4.680689 2.815577,-4.39633 3.106805,-4.769147 5.569439,-7.129759 l 2.598511,-2.490859 h 2.407129 2.40713 l 2.788995,2.116363 c 1.533948,1.163999 3.063115,2.33777 3.398152,2.608379 0.570724,0.460976 0.647449,0.71865 1.21613,4.084287 0.460451,2.725088 0.607026,4.283125 0.607179,6.454109 l 2.01e-4,2.861838 -1.95829,1.009298 -1.958293,1.009297 -4.451748,-0.0288 c -2.448462,-0.01584 -4.928722,-0.102965 -5.511689,-0.193611 z"/>
  <path id="obliques1" class="muscle" d="m 75.891336,131.48338 c -1.457625,-1.42706 -4.094112,-4.00198 -5.858859,-5.72203 l -3.208631,-3.12736 1.358829,-11.75734 1.358829,-11.757332 -1.799728,-4.586253 c -1.736625,-4.425446 -1.814836,-4.69993 -2.230591,-7.828346 -0.537304,-4.043036 -0.539942,-4.221861 -0.05988,-4.0589 0.204039,0.06926 2.278872,0.781461 4.61074,1.582662 l 4.23976,1.45673 0.06717,0.677893 c 0.03694,0.372842 -0.08309,5.257725 -0.26674,10.855296 l -0.333912,10.1774 2.125289,12.01839 c 1.168908,6.61011 2.314433,12.52769 2.545611,13.15018 0.455866,1.22751 0.506159,1.51924 0.261333,1.51587 -0.08745,-0.001 -1.351593,-1.16979 -2.809218,-2.59686 z"/>
  <path id="obliques2" class="muscle" d="m 97.09105,136.06429 c 2.94e-4,-0.099 0.245596,-1.08622 0.545116,-2.19385 0.29952,-1.10764 1.261147,-5.49579 2.136949,-9.75145 l 1.592365,-7.73756 0.48447,-15.11159 c 0.26646,-8.311369 0.52414,-15.151248 0.57263,-15.199731 0.0485,-0.04848 1.60079,-0.618189 3.44958,-1.266014 1.84879,-0.647826 3.92832,-1.432266 4.62117,-1.7432 0.88181,-0.395733 1.3043,-0.493227 1.40828,-0.324978 0.0817,0.132197 0.41306,1.324869 0.73635,2.650383 l 0.58779,2.410026 -1.93283,3.57198 -1.93284,3.57198 0.13536,8.282704 c 0.0744,4.55549 0.26927,10.95376 0.43295,14.21838 l 0.2976,5.93566 -5.34881,5.36673 c -5.347607,5.36552 -7.787137,7.65917 -7.78613,7.32053 z"/>
  <path id="abs1" class="muscle" d="m 95.288617,96.126787 c -1.505388,-0.142774 -4.747233,-0.74501 -4.915344,-0.913121 -0.03493,-0.03493 -0.356886,-2.209882 -0.715457,-4.833226 l -0.651946,-4.769717 0.459465,-0.778736 c 0.306579,-0.519612 0.61121,-0.776584 0.915499,-0.772269 0.775919,0.011 9.28363,1.845331 9.45138,2.037791 0.139265,0.159779 1.294376,7.596503 1.288386,8.294782 -10e-4,0.148284 -0.58947,0.649106 -1.307107,1.112937 -1.408823,0.910566 -1.436922,0.914426 -4.524876,0.621559 z"/>
  <path id="abs2" class="muscle" d="m 77.110644,95.668965 -1.006943,-0.433287 v -4.849255 -4.849255 l 2.384865,-0.0028 c 1.64236,-0.0019 3.506873,-0.193075 5.988661,-0.613949 1.982088,-0.336133 3.63619,-0.580715 3.675781,-0.543515 0.03959,0.0372 -0.139069,2.292915 -0.397023,5.012701 -0.388544,4.096682 -0.536058,5.015574 -0.85983,5.356043 -0.306065,0.32185 -1.116441,0.514679 -3.736743,0.889157 -4.080009,0.58309 -4.764098,0.586953 -6.048768,0.03416 z"/>
  <path id="abs3" class="muscle" d="m 76.78125,106.67288 -0.677549,-0.69905 v -3.93891 -3.938917 l 3.762787,-0.135899 c 2.069533,-0.07474 4.740582,-0.193131 5.935665,-0.263081 l 2.172877,-0.127182 -0.0023,4.318079 -0.0023,4.31808 -1.555778,0.58297 c -1.479203,0.55427 -1.737895,0.58296 -5.255818,0.58296 h -3.70004 z"/>
  <path id="abs4" class="muscle" d="m 89.816589,106.77737 -0.569631,-0.59457 v -4.17516 -4.175167 h 2.298011 c 1.263907,0 3.887258,0.06268 5.829671,0.139285 l 3.53166,0.139285 v 4.051487 4.05149 l -1.536914,0.5826 c -1.46604,0.55575 -1.708602,0.58245 -5.260039,0.57896 l -3.723127,-0.004 z"/>
  <path id="abs5" class="muscle" d="m 84.901203,117.19493 c -2.102648,-0.45258 -7.256813,-1.88381 -7.441009,-2.06624 -0.325258,-0.32214 -1.356493,-4.3388 -1.356493,-5.28353 v -0.77732 h 5.273202 c 2.900261,0 5.57131,-0.0596 5.935664,-0.13249 l 0.662463,-0.1325 v 2.70819 c 0,2.43589 -0.05861,2.8646 -0.582967,4.26396 -0.575546,1.53597 -0.592412,1.55549 -1.324925,1.53348 -0.408077,-0.0123 -0.932748,-0.0634 -1.165935,-0.11355 z"/>
  <path id="abs6" class="muscle" d="m 89.721878,113.95283 -0.657251,-3.50707 0.586108,-0.54868 0.586109,-0.54868 5.274242,-0.13011 c 2.900834,-0.0716 5.303854,-0.10048 5.340054,-0.0643 0.0362,0.0362 -0.12737,0.51649 -0.36349,1.06733 -0.29788,0.69493 -0.42937,1.46665 -0.42951,2.52087 l -2.1e-4,1.51933 -1.720251,0.92865 c -1.39566,0.75342 -2.308798,1.05516 -4.839401,1.59917 l -3.11915,0.67053 z"/>
  <path id="abs7" class="muscle" d="m 84.357694,142.17629 c -0.872701,-1.08627 -1.171806,-1.80243 -3.053034,-7.30995 l -2.085549,-6.10569 -0.67325,-5.65964 c -0.370288,-3.11281 -0.654065,-5.68731 -0.630615,-5.72112 0.02345,-0.0338 0.772664,0.22853 1.66492,0.58297 1.512262,0.60073 1.807665,0.64444 4.355766,0.64444 h 2.733482 l 0.121845,0.58297 c 0.06701,0.32063 0.361845,2.08693 0.655179,3.92511 l 0.533334,3.34215 -0.638335,8.19427 c -0.351085,4.50684 -0.638335,8.32113 -0.638335,8.47618 0,0.17975 -0.249689,0.2766 -0.688961,0.26724 -0.575297,-0.0123 -0.848576,-0.21336 -1.656447,-1.21893 z"/>
  <path id="abs8" d="m 90.430887,143.15781 c -0.04653,-0.15283 -0.273029,-3.71209 -0.503341,-7.90945 l -0.41875,-7.63157 0.570478,-4.18153 c 0.313763,-2.29985 0.612579,-4.21521 0.664036,-4.25637 0.05146,-0.0412 1.762964,-0.4198 3.803349,-0.84141 3.484467,-0.72002 3.73122,-0.74477 4.06262,-0.40737 0.329431,0.33539 0.249297,0.90046 -1.208355,8.52075 l -1.561184,8.16154 -1.875089,4.34575 -1.875089,4.34575 -0.787041,0.0659 c -0.51198,0.0429 -0.816606,-0.0312 -0.871634,-0.21199 z"/>
  <path id="abductor1" class="muscle" d="m 61.55618,146.64272 c 0.05952,-0.20404 0.46148,-2.01003 0.893237,-4.01331 0.503663,-2.33692 1.514679,-5.85034 2.820897,-9.80303 l 2.035884,-6.16069 0.900949,0.54056 c 1.076085,0.64565 1.04346,0.17756 0.501415,7.19416 l -0.376659,4.87572 -2.420745,3.54016 c -2.132311,3.11835 -2.522624,3.57932 -3.275784,3.86879 -1.085735,0.41728 -1.211839,0.41233 -1.079194,-0.0424 z"/>
  <path id="abductor2" class="muscle" d="m 112.26449,142.87388 -3.09066,-3.50385 0.001,-5.87662 0.001,-5.87662 0.66783,-0.38017 c 0.3673,-0.2091 0.73454,-0.3045 0.81609,-0.21199 0.37261,0.42269 4.16669,13.23212 4.77473,16.12028 0.63106,2.9975 0.65292,3.23282 0.30029,3.23282 -0.22575,0 -1.63631,-1.42393 -3.47096,-3.50385 z"/>
  <path id="biceps1" class="muscle" d="m 49.181222,97.601147 v -6.802954 l 1.079201,-3.136534 1.079202,-3.136534 4.361827,-2.99191 4.361826,-2.991911 1.819561,0.976305 c 1.000759,0.536967 1.902486,1.053995 2.003838,1.148951 0.103678,0.09713 -0.108561,2.60966 -0.485254,5.744525 l -0.669531,5.57188 -1.846613,4.229811 -1.846614,4.229814 -4.62981,1.98075 c -2.546396,1.08942 -4.764321,1.98076 -4.928722,1.98076 -0.251014,0 -0.298911,-1.09011 -0.298911,-6.802953 z"/>
  <path id="biceps2" class="muscle" d="m 123.94863,102.59824 c -3.18298,-1.36012 -3.61786,-1.62626 -5.61125,-3.434015 l -1.11787,-1.01377 -1.58778,-5.460668 -1.58777,-5.460668 0.21697,-2.488883 c 0.41776,-4.792102 0.29014,-4.406158 1.77054,-5.354495 0.71715,-0.459402 1.4223,-0.837279 1.56701,-0.839727 0.1447,-0.0024 1.98565,1.163829 4.091,2.591728 l 3.8279,2.596178 1.38382,2.650525 1.38381,2.650525 0.40315,6.041659 c 0.56474,8.463351 0.57867,8.109791 -0.3366,8.546251 -0.41204,0.19648 -0.86516,0.34804 -1.00695,0.33679 -0.14178,-0.0113 -1.66998,-0.62389 -3.39598,-1.36143 z"/>
  <path id="forearm1" class="muscle" d="m 34.41228,131.63652 c -1.030673,-0.89401 -1.839052,-1.80355 -1.796398,-2.02122 0.208191,-1.06243 8.140135,-21.26265 9.094311,-23.16041 0.855683,-1.70187 1.531154,-2.57599 3.089934,-3.99866 1.347094,-1.22947 2.054098,-1.70925 2.177277,-1.47751 0.100326,0.18874 0.4059,1.54791 0.679053,3.02037 0.494644,2.66643 0.499889,2.67721 1.303448,2.67721 0.443743,0 2.415914,-0.6796 4.382602,-1.51022 3.486992,-1.47271 4.323628,-1.72547 4.317225,-1.30428 -0.01421,0.93491 -1.832392,5.9131 -2.839914,7.77572 -1.160625,2.14566 -1.826543,2.87512 -9.089727,9.95709 l -7.837353,7.64181 -0.0017,1.55679 c -0.0016,1.43216 -0.0659,1.59329 -0.803254,2.01278 l -0.801518,0.45598 z"/>
  <path id="forearm2" class="muscle" d="m 138.25358,128.3305 -3.02044,-4.70202 -5.90358,-5.12335 -5.90358,-5.12334 -1.61481,-4.60734 c -1.0989,-3.13534 -1.52523,-4.69694 -1.33441,-4.88775 0.19082,-0.19082 1.45969,0.2157 3.97155,1.2724 l 3.69114,1.55282 1.00693,-0.5941 1.00694,-0.59411 v -2.44414 -2.44415 l 0.8924,0.0101 c 0.81728,0.009 1.09444,0.28308 3.29261,3.25335 l 2.40022,3.24327 4.12118,11.25317 c 2.26665,6.18924 4.12118,11.52274 4.12118,11.85223 0,0.42603 -0.43644,0.87826 -1.51092,1.5656 -0.83101,0.53159 -1.66506,1.02342 -1.85345,1.09296 -0.20688,0.0764 -1.53868,-1.73567 -3.36296,-4.57559 z"/>
  <path id="shoulder1" class="muscle" d="m 53.723937,78.715645 c -0.37882,-0.418591 -0.454435,-1.163798 -0.454435,-4.478588 v -3.976443 l 1.441571,-3.376922 1.441572,-3.376922 3.521694,-1.480382 3.521694,-1.480382 h 4.921796 4.921797 v 0.651928 c 0,0.509795 -0.400959,0.896141 -1.839099,1.772076 -1.803636,1.098548 -1.913886,1.23547 -5.717404,7.100555 l -3.878303,5.980408 -3.188965,1.37747 c -1.753932,0.757608 -3.279282,1.470142 -3.389669,1.583408 -0.335107,0.34385 -0.823551,0.23275 -1.302249,-0.296206 z"/>
  <path id="shoulder2" class="muscle" d="m 119.28269,77.365448 -3.31954,-1.845118 -3.54109,-5.326182 c -3.17603,-4.777093 -3.79335,-5.541886 -5.98795,-7.418516 l -2.44687,-2.092334 5.69341,-0.07429 5.69341,-0.07429 3.35239,2.056701 3.35239,2.056702 1.42868,3.419067 c 1.34347,3.215128 1.42868,3.558955 1.42868,5.764317 0,2.943478 -0.78847,5.388396 -1.73588,5.382674 -0.32895,-0.002 -2.09188,-0.833915 -3.91763,-1.848731 z"/>
  <path id="quads1" class="muscle" d="m 69.187812,176.179 -3.106064,-6.93864 -0.92201,-4.69533 -0.92201,-4.69532 0.03325,-5.48641 0.03326,-5.48641 2.748588,-4.04807 c 1.557058,-2.29322 2.805307,-3.9405 2.879424,-3.7999 0.424477,0.80518 3.183683,11.03546 4.484097,16.62564 l 1.528218,6.56946 -1.353133,9.07003 c -1.301298,8.72258 -1.544097,9.8236 -2.16633,9.8236 -0.07217,0 -1.528956,-3.12239 -3.237291,-6.93865 z"/>
  <path id="quads2" class="muscle" d="m 103.32212,173.22708 -1.23267,-10.13885 2.66696,-10.71435 c 2.47969,-9.96202 2.71056,-10.71435 3.28795,-10.71435 0.455,0 1.24408,0.83493 2.95213,3.12368 l 2.33114,3.12367 v 7.79944 7.79943 l -1.28862,4.15058 c -0.70874,2.28283 -2.42376,6.74937 -3.81115,9.92567 -3.58232,8.20137 -3.35457,8.40355 -4.90574,-4.35492 z"/>
  <path id="quads3" class="muscle" d="m 63.207476,175.64328 -3.09206,-8.57929 0.01294,-4.00131 c 0.0081,-2.49066 0.254114,-5.73881 0.651749,-8.60345 0.635848,-4.58079 0.642355,-4.60255 1.402343,-4.69095 l 0.76353,-0.0888 -0.568679,1.89555 -0.568678,1.89555 1.050348,7.54134 1.050347,7.54135 2.514225,6.18412 2.514225,6.18412 -0.55209,1.6539 c -0.488655,1.46386 -0.640219,1.6535 -1.319112,1.65053 -0.744172,-0.003 -0.859139,-0.25895 -3.859084,-8.58266 z"/>
  <path id="quads4" class="muscle" d="m 109.59452,182.95685 c -0.34954,-1.24843 -0.29867,-1.44522 2.69514,-10.42678 l 3.0514,-9.15434 v -6.89761 -6.8976 l 0.84234,0.85737 0.84234,0.85737 0.18772,8.91664 0.18773,8.91664 -2.89968,7.44878 c -1.59483,4.09683 -2.89969,7.4945 -2.89969,7.55038 0,0.0559 -0.37148,0.1016 -0.82552,0.1016 -0.73084,0 -0.86637,-0.14593 -1.18178,-1.27245 z"/>
  <path id="trapezius4" class="muscle" d="m 93.193276,60.147203 c 0,-0.344995 3.065109,-7.336676 3.349069,-7.639411 0.06663,-0.07103 1.410992,1.155859 2.987476,2.726428 3.262219,3.249981 3.342969,2.95178 -1.009243,3.727443 -1.57864,0.28135 -3.42309,0.748519 -4.098778,1.038153 -0.942291,0.403913 -1.228524,0.438252 -1.228524,0.147387 z"/>
  <path id="trapezius5" class="muscle" d="m 80.02289,59.258056 c -2.102262,-0.516275 -3.877872,-0.994258 -3.945798,-1.062184 -0.06793,-0.06793 1.096111,-1.338047 2.586752,-2.82249 2.629752,-2.618818 2.718315,-2.678183 2.981625,-1.998628 0.149253,0.385196 0.867041,1.978523 1.595085,3.540726 0.728043,1.562203 1.323715,2.95363 1.323715,3.092061 0,0.348286 -0.217313,0.312421 -4.541379,-0.749485 z"/>
  <path id="neck" class="muscle" d="m 88.323357,72.965088 c -0.04882,-4.894938 -0.836851,-6.571194 -4.110854,-8.744382 -2.938058,-1.950197 -2.473751,-2.572485 0.815588,-1.093091 l 2.085501,0.937963 0.141606,-1.083153 c 0.07788,-0.595735 -1.004573,-4.127161 -2.405457,-7.847614 -1.400886,-3.720453 -2.49076,-6.830163 -2.421944,-6.910467 0.06882,-0.0803 1.624913,0.309542 3.457994,0.866323 l 3.332874,1.012329 2.903318,-0.980466 c 1.596825,-0.539256 2.988548,-0.895235 3.092718,-0.791065 0.395342,0.395342 -1.507529,6.274137 -3.010925,9.302059 -1.280352,2.578698 -2.087435,5.999316 -1.415517,5.999316 0.0839,0 1.705869,-0.528317 3.604367,-1.174038 4.186919,-1.424063 5.237162,-1.459934 2.292989,-0.07832 -1.192594,0.559651 -3.25303,2.0008 -4.578747,3.202554 -2.362729,2.141799 -2.411099,2.239305 -2.44612,4.930958 -0.01965,1.510273 -0.320563,3.485595 -0.668695,4.389604 -0.621843,1.614764 -0.633596,1.580694 -0.668696,-1.938513 z"/>
  <path id="adductors1" class="muscle" d="m 79.881651,175.87084 c -0.78348,-6.30146 -4.170784,-21.9874 -6.872077,-31.82325 -1.998746,-7.27775 -2.354562,-9.99817 -1.689927,-12.92046 0.290592,-1.27769 0.371322,-1.22016 3.95384,2.81769 2.011455,2.2671 5.29972,6.52433 7.307254,9.46051 l 3.650062,5.33851 -1.788859,12.4699 c -0.983873,6.85845 -2.274489,14.07149 -2.868035,16.02898 l -1.079177,3.55908 z"/>
  <path id="adductors2" class="muscle" d="m 95.338547,172.48315 c -0.580287,-3.68997 -1.453163,-8.77697 -1.939724,-11.30443 -0.519684,-2.69953 -0.884657,-6.63651 -0.884657,-9.54283 v -4.94742 l 5.018598,-6.57987 c 4.064716,-5.32923 8.940376,-10.60544 9.351856,-10.12014 0.0443,0.0522 -0.11201,2.35343 -0.34726,5.11384 -0.30503,3.57926 -1.29294,8.36139 -3.44402,16.67133 -1.65896,6.40883 -3.583573,14.82231 -4.276909,18.69663 -1.800696,10.06218 -2.177733,10.2804 -3.477884,2.01289 z"/>
  <path id="human_body" class="muscle" d="M 61.623 273.423 L 59.564 273.366 L 56.064 272.173 L 52.564 270.979 L 52.245 268.731 L 51.925 266.482 L 53.813 263.731 L 55.701 260.979 L 57.882 255.596 L 60.064 250.212 L 60.061 247.096 L 60.058 243.979 L 58.105 233.919 L 56.152 223.86 L 56.537 221.919 L 56.923 219.979 L 57.989 213.979 L 59.055 207.979 L 60.56 200.271 L 62.064 192.563 L 62.064 187.586 L 62.064 182.609 L 61.011 179.839 L 59.958 177.069 L 59.066 170.024 L 58.175 162.979 L 59.161 152.502 L 60.147 142.025 L 62.991 133.502 L 65.835 124.979 L 66.554 110.869 L 67.274 96.759 L 65.709 93.869 L 64.144 90.979 L 64.104 92.56 L 64.064 94.14 L 61.568 99.06 L 59.072 103.979 L 59.046 105.479 L 59.02 106.979 L 57.143 111.113 L 55.266 115.247 L 51.467 118.613 L 47.669 121.979 L 44.424 125.431 L 41.179 128.883 L 38.181 134.931 L 35.184 140.979 L 33.006 148.204 L 30.829 155.429 L 29.49 156.54 L 28.152 157.651 L 27.221 157.076 L 26.291 156.501 L 25.055 157.99 L 23.819 159.479 L 21.9 159.479 L 19.98 159.479 L 17.96 157.596 L 15.939 155.714 L 17.699 151.846 L 19.458 147.979 L 19.845 147.229 L 20.231 146.479 L 17.647 146.479 L 15.064 146.479 L 15.064 145.431 L 15.064 144.383 L 17.814 141.976 L 20.564 139.57 L 23.1 138.492 L 25.636 137.414 L 28.734 132.196 L 31.831 126.979 L 35.552 116.979 L 39.273 106.979 L 40.289 104.979 L 41.304 102.979 L 44.069 99.979 L 46.834 96.979 L 47.491 92.358 L 48.148 87.738 L 50.15 83.858 L 52.152 79.979 L 51.576 76.799 L 51 73.62 L 52.154 69.035 L 53.308 64.451 L 56.216 62.005 L 59.123 59.559 L 62.593 59.019 L 66.064 58.479 L 69.608 57.925 L 73.152 57.372 L 76.237 54.616 L 79.321 51.86 L 79.806 46.808 L 80.292 41.756 L 78.764 39.368 L 77.236 36.979 L 77.237 31.479 L 77.237 25.979 L 78.343 21.216 L 79.449 16.452 L 83.093 15.471 L 86.737 14.49 L 91.947 16.037 L 97.157 17.584 L 99.066 20.723 L 100.976 23.863 L 100.959 31.599 L 100.942 39.336 L 99.503 40.53 L 98.064 41.724 L 98.064 45.554 L 98.064 49.385 L 99.218 51.917 L 100.372 54.449 L 104.533 56.464 L 108.695 58.479 L 111.912 58.479 L 115.128 58.479 L 118.574 59.919 L 122.02 61.359 L 124.038 64.669 L 126.056 67.979 L 126.06 74.269 L 126.064 80.559 L 127.924 84.269 L 129.783 87.979 L 130.456 92.358 L 131.129 96.737 L 134.398 100.556 L 137.667 104.375 L 141.999 116.177 L 146.332 127.979 L 148.818 132.657 L 151.304 137.336 L 153.934 138.453 L 156.564 139.57 L 159.314 141.976 L 162.064 144.383 L 162.064 145.431 L 162.064 146.479 L 159.481 146.479 L 156.898 146.479 L 157.284 147.229 L 157.67 147.979 L 159.43 151.846 L 161.189 155.714 L 159.169 157.596 L 157.148 159.479 L 155.229 159.479 L 153.309 159.479 L 152.114 158.038 L 150.918 156.598 L 149.551 157.123 L 148.183 157.647 L 145.76 152.813 L 143.337 147.979 L 142.663 144.267 L 141.988 140.555 L 139.452 134.767 L 136.915 128.979 L 129.088 121.422 L 121.26 113.864 L 120.055 109.422 L 118.849 104.979 L 116.457 99.965 L 114.064 94.95 L 114.064 93.715 L 114.064 92.479 L 113.083 92.479 L 112.102 92.479 L 111.405 95.229 L 110.707 97.979 L 110.699 100.979 L 110.691 103.979 L 111.482 114.479 L 112.274 124.979 L 114.63 132.979 L 116.985 140.979 L 118.018 147.479 L 119.05 153.979 L 119.042 162.479 L 119.034 170.979 L 117.585 176.979 L 116.136 182.979 L 116.101 188.595 L 116.065 194.212 L 118.63 207.595 L 121.195 220.979 L 120.554 228.81 L 119.913 236.641 L 118.477 242.155 L 117.041 247.67 L 119.579 254.707 L 122.118 261.744 L 124.164 264.617 L 126.209 267.491 L 125.875 269.227 L 125.541 270.964 L 122.553 271.603 L 119.565 272.242 L 115.85 272.361 L 112.135 272.479 L 111.024 270.402 L 109.912 268.324 L 108.552 263.152 L 107.192 257.979 L 108.283 251.479 L 109.374 244.979 L 107.777 239.979 L 106.18 234.979 L 104.199 229.479 L 102.218 223.979 L 101.195 212.979 L 100.171 201.979 L 98.618 196.019 L 97.064 190.059 L 97.064 188.174 L 97.064 186.289 L 95.173 179.634 L 93.282 172.979 L 91.542 161.817 L 89.803 150.654 L 90.453 148.067 L 91.102 145.479 L 89.19 145.479 L 87.279 145.479 L 87.197 151.334 L 87.114 157.189 L 85.563 166.829 L 84.012 176.469 L 82.051 182.724 L 80.09 188.979 L 80.077 191.709 L 80.064 194.439 L 78.647 198.209 L 77.23 201.979 L 76.737 211.556 L 76.245 221.134 L 73.06 230.056 L 69.875 238.979 L 69.376 243.681 L 68.877 248.382 L 69.922 253.251 L 70.966 258.12 L 68.984 264.55 L 67.002 270.979 L 65.342 272.229 L 63.682 273.479 L 61.623 273.423 Z M 60.986 270.173 L 65.408 269.979 L 66.265 266.979 L 67.122 263.979 L 68.098 260.893 L 69.074 257.808 L 68.057 252.445 L 67.04 247.083 L 66.216 246.531 L 65.392 245.979 L 63.608 238.979 L 61.823 231.979 L 61.165 220.979 L 60.506 209.979 L 59.256 216.979 L 58.005 223.979 L 60.034 234.922 L 62.064 245.865 L 62.064 249.113 L 62.064 252.361 L 61.091 252.962 L 60.118 253.563 L 58.988 257.762 L 57.857 261.961 L 55.96 264.624 L 54.064 267.288 L 54.064 268.3 L 54.064 269.312 L 55.314 269.84 L 56.564 270.368 L 60.986 270.173 Z M 117.373 270.464 L 121.564 270.448 L 122.893 269.606 L 124.222 268.763 L 121.633 263.871 L 119.044 258.979 L 117.378 254.979 L 115.712 250.979 L 115.979 246.979 L 116.245 242.979 L 117.64 236.979 L 119.034 230.979 L 118.931 223.979 L 118.827 216.979 L 118.142 213.979 L 117.456 210.979 L 116.881 219.979 L 116.307 228.979 L 114.517 237.479 L 112.727 245.979 L 111.378 247.578 L 110.028 249.176 L 109.904 254.578 L 109.78 259.979 L 110.756 264.056 L 111.732 268.133 L 112.457 269.306 L 113.182 270.479 L 117.373 270.464 Z M 67.126 230.479 L 67.794 220.979 L 69.545 215.979 L 71.297 210.979 L 73.27 207.093 L 75.243 203.208 L 73.903 202.359 L 72.564 201.51 L 71.397 201.494 L 70.231 201.479 L 68.243 198.75 L 66.255 196.021 L 64.193 198.5 L 62.13 200.979 L 62.128 210.479 L 62.126 219.979 L 63.042 227.024 L 63.958 234.069 L 65.209 237.024 L 66.459 239.979 L 67.126 230.479 Z M 112.063 238.979 L 112.77 238.542 L 114.107 230.761 L 115.444 222.979 L 115.504 211.839 L 115.564 200.699 L 113.585 198.507 L 111.606 196.315 L 109.585 198.797 L 107.564 201.279 L 105.564 201.667 L 103.564 202.056 L 103.76 203.517 L 103.957 204.979 L 107.083 213.479 L 110.209 221.979 L 110.782 230.698 L 111.356 239.417 L 112.063 238.979 Z M 70.203 233.479 L 72.202 228.979 L 73.534 222.979 L 74.867 216.979 L 75.341 212.247 L 75.814 207.515 L 75.004 208.016 L 74.193 208.517 L 72.168 213.929 L 70.143 219.341 L 69.104 227.634 L 68.064 235.926 L 68.134 236.953 L 68.205 237.979 L 70.203 233.479 Z M 109.685 237.479 L 110.163 237.479 L 109.542 231.229 L 108.921 224.979 L 106.981 218.479 L 105.04 211.979 L 103.65 209.511 L 102.26 207.044 L 102.728 212.011 L 103.196 216.979 L 104.086 221.575 L 104.977 226.171 L 107.092 231.825 L 109.208 237.479 L 109.685 237.479 Z M 76.466 198.479 L 77.787 195.979 L 78.406 193.381 L 79.026 190.783 L 76.598 189.676 L 74.17 188.57 L 72.477 185.986 L 70.784 183.402 L 68.759 185.576 L 66.734 187.749 L 65.399 185.923 L 64.064 184.097 L 64.053 186.538 L 64.042 188.979 L 63.387 192.979 L 62.732 196.979 L 64.398 195.606 L 66.064 194.234 L 66.064 192.856 L 66.064 191.479 L 67.064 191.479 L 68.064 191.479 L 68.086 193.229 L 68.108 194.979 L 70.018 197.464 L 71.927 199.949 L 72.648 199.228 L 73.369 198.507 L 73.283 195.493 L 73.198 192.479 L 74.131 192.479 L 75.064 192.479 L 75.104 196.729 L 75.144 200.979 L 76.466 198.479 Z M 103.107 196.479 L 103.763 191.979 L 103.929 194.979 L 104.095 197.979 L 104.94 199.313 L 105.786 200.648 L 107.925 197.928 L 110.064 195.209 L 110.069 193.094 L 110.074 190.979 L 112.642 193.979 L 115.209 196.979 L 114.65 194.479 L 114.091 191.979 L 114.078 187.506 L 114.064 183.034 L 112.399 185.411 L 110.733 187.789 L 108.971 185.612 L 107.208 183.435 L 105.886 185.287 L 104.564 187.139 L 101.746 188.969 L 98.927 190.798 L 99.504 193.095 L 100.08 195.391 L 101.265 198.185 L 102.451 200.979 L 103.107 196.479 Z M 78.402 188.479 L 79.34 188.479 L 78.643 180.788 L 77.946 173.097 L 77.28 172.038 L 76.614 170.979 L 75.897 174.979 L 75.179 178.979 L 75.122 182.529 L 75.064 186.079 L 76.264 187.279 L 77.464 188.479 L 78.402 188.479 Z M 99.941 188.479 L 100.819 188.479 L 102.059 186.985 L 103.298 185.492 L 102.603 178.996 L 101.907 172.5 L 101.113 172.009 L 100.319 171.519 L 99.702 175.249 L 99.086 178.979 L 99.075 183.729 L 99.064 188.479 L 99.941 188.479 Z M 67.091 184.479 L 67.929 184.479 L 68.504 182.669 L 69.078 180.859 L 66.56 174.661 L 64.042 168.464 L 62.995 160.94 L 61.949 153.417 L 62.574 151.448 L 63.199 149.479 L 62.267 149.479 L 61.336 149.479 L 60.7 154.119 L 60.064 158.758 L 60.064 163.066 L 60.064 167.374 L 63.158 175.927 L 66.253 184.479 L 67.091 184.479 Z M 110.801 184.479 L 111.602 184.479 L 114.583 176.729 L 117.564 168.979 L 117.361 160.076 L 117.158 151.173 L 116.111 150.126 L 115.064 149.079 L 115.064 156.381 L 115.064 163.684 L 112.024 172.757 L 108.984 181.83 L 109.493 183.154 L 110.001 184.479 L 110.801 184.479 Z M 72.835 183.041 L 73.319 182.557 L 74.682 173.385 L 76.046 164.212 L 74.516 157.615 L 72.986 151.018 L 71.445 145.717 L 69.904 140.416 L 67.002 144.698 L 64.1 148.979 L 64.082 154.092 L 64.064 159.206 L 65.016 164.227 L 65.968 169.247 L 69.16 176.386 L 72.352 183.524 L 72.835 183.041 Z M 105.116 183.479 L 105.791 183.479 L 108.317 177.729 L 110.844 171.979 L 112.08 168.08 L 113.317 164.181 L 113.441 156.08 L 113.564 147.979 L 111.126 144.729 L 108.688 141.479 L 107.999 141.479 L 107.311 141.479 L 104.621 152.213 L 101.931 162.947 L 103.186 173.213 L 104.441 183.479 L 105.116 183.479 Z M 81.647 177.829 L 82.879 173.679 L 84.679 161.139 L 86.479 148.599 L 82.623 143 L 78.767 137.402 L 74.957 133.19 L 71.146 128.979 L 70.947 131.979 L 70.749 134.979 L 70.793 135.979 L 70.837 136.979 L 72.888 144.479 L 74.939 151.979 L 76.9 160.979 L 78.862 169.979 L 79.638 175.979 L 80.414 181.979 L 81.647 177.829 Z M 97.01 178.822 L 97.741 177.979 L 98.967 170.979 L 100.193 163.979 L 103.289 151.979 L 106.385 139.979 L 106.823 134.479 L 107.261 128.979 L 104.552 131.479 L 101.844 133.979 L 96.954 140.445 L 92.064 146.911 L 92.064 151.146 L 92.064 155.38 L 92.975 160.18 L 93.887 164.979 L 95.083 172.322 L 96.279 179.664 L 97.01 178.822 Z M 151.564 153.479 L 152.064 153.479 L 152.064 152.979 L 152.064 152.479 L 151.564 152.479 L 151.064 152.479 L 151.064 152.979 L 151.064 153.479 L 151.564 153.479 Z M 27.52 150.515 L 28.976 149.307 L 29.973 149.923 L 30.971 150.539 L 32.026 146.259 L 33.081 141.979 L 34.037 138.539 L 34.993 135.099 L 33.906 133.789 L 32.819 132.479 L 31.602 132.479 L 30.385 132.479 L 29.263 134.942 L 28.14 137.406 L 24.186 139.902 L 20.232 142.398 L 19.647 143.345 L 19.061 144.292 L 21.209 143.731 L 23.356 143.169 L 22.853 145.802 L 22.35 148.435 L 24.207 149.024 L 26.064 149.614 L 26.064 150.669 L 26.064 151.724 L 27.52 150.515 Z M 151.699 149.987 L 153.207 148.479 L 154.135 148.479 L 155.064 148.479 L 155.064 145.872 L 155.064 143.265 L 156.616 143.861 L 158.168 144.456 L 157.532 143.427 L 156.896 142.398 L 152.942 139.902 L 148.988 137.406 L 147.865 134.942 L 146.743 132.479 L 146.153 132.511 L 145.564 132.543 L 143.855 133.841 L 142.147 135.139 L 143.097 138.559 L 144.047 141.979 L 145.083 146.187 L 146.118 150.395 L 147.49 149.869 L 148.862 149.343 L 149.526 150.418 L 150.191 151.494 L 151.699 149.987 Z M 62.438 146.884 L 63.564 146.448 L 66.007 142.87 L 68.45 139.292 L 68.868 133.513 L 69.286 127.734 L 68.259 127.099 L 67.232 126.465 L 65.18 132.722 L 63.128 138.979 L 62.22 143.15 L 61.312 147.321 L 62.438 146.884 Z M 115.747 146.479 L 116.223 146.479 L 115.563 143.229 L 114.904 139.979 L 112.804 133.281 L 110.704 126.583 L 109.884 127.09 L 109.064 127.597 L 109.064 133.503 L 109.064 139.409 L 112.167 142.944 L 115.271 146.479 L 115.747 146.479 Z M 86.039 143.479 L 86.769 143.479 L 87.424 134.954 L 88.079 126.428 L 87.444 122.454 L 86.808 118.479 L 84.018 118.479 L 81.227 118.479 L 79.488 117.812 L 77.749 117.144 L 78.426 122.9 L 79.102 128.655 L 81.174 134.817 L 83.246 140.979 L 84.277 142.229 L 85.309 143.479 L 86.039 143.479 Z M 91.228 143.479 L 92.135 143.479 L 94.059 138.991 L 95.982 134.504 L 97.532 126.334 L 99.082 118.164 L 98.724 117.806 L 98.366 117.447 L 94.465 118.257 L 90.564 119.066 L 89.985 123.364 L 89.405 127.661 L 89.863 135.57 L 90.321 143.479 L 91.228 143.479 Z M 103.528 130.198 L 110.322 123.472 L 109.976 116.725 L 109.63 109.979 L 109.597 102.397 L 109.564 94.815 L 111.46 91.298 L 113.356 87.78 L 112.668 85.039 L 111.98 82.297 L 110.272 83.036 L 108.564 83.775 L 105.4 84.845 L 102.235 85.915 L 101.767 100.947 L 101.299 115.979 L 99.786 123.479 L 98.273 130.979 L 97.504 133.952 L 96.735 136.925 L 103.528 130.198 Z M 78.921 134.341 L 79.278 134.479 L 78.726 133.041 L 78.175 131.604 L 76.031 119.524 L 73.888 107.443 L 74.226 96.543 L 74.564 85.643 L 71.064 84.496 L 67.564 83.349 L 66.197 82.792 L 64.83 82.234 L 65.333 86.107 L 65.835 89.979 L 67.631 94.561 L 69.427 99.143 L 68.067 110.949 L 66.707 122.756 L 72.636 128.48 L 78.564 134.203 L 78.921 134.341 Z M 37.168 132.915 L 38.064 132.361 L 38.064 130.835 L 38.064 129.309 L 45.895 121.644 L 53.726 113.979 L 55.005 111.59 L 56.283 109.2 L 57.104 106.34 L 57.924 103.479 L 57.462 103.479 L 57 103.479 L 53.41 104.979 L 49.82 106.479 L 49.067 106.479 L 48.314 106.479 L 47.684 103.329 L 47.054 100.178 L 44.966 102.067 L 42.879 103.957 L 41.798 105.968 L 40.717 107.979 L 36.485 118.979 L 32.253 129.979 L 34.263 131.724 L 36.272 133.468 L 37.168 132.915 Z M 143.188 132.17 L 145.064 130.998 L 145.064 130.234 L 145.064 129.469 L 140.954 118.224 L 136.843 106.979 L 134.403 103.729 L 131.962 100.479 L 131.013 100.479 L 130.064 100.479 L 130.064 102.92 L 130.064 105.361 L 129.108 105.952 L 128.152 106.543 L 124.454 104.998 L 120.757 103.453 L 120.413 103.796 L 120.07 104.14 L 121.652 108.785 L 123.235 113.429 L 129.133 118.539 L 135.03 123.648 L 138.171 128.494 L 141.311 133.341 L 143.188 132.17 Z M 85.707 117.376 L 86.85 117.479 L 87.457 115.897 L 88.064 114.315 L 88.064 111.585 L 88.064 108.854 L 82.07 108.916 L 76.075 108.979 L 76.083 109.979 L 76.091 110.979 L 76.674 113.152 L 77.257 115.326 L 80.911 116.299 L 84.564 117.272 L 85.707 117.376 Z M 93.435 116.913 L 96.564 116.242 L 98.314 115.325 L 100.064 114.409 L 100.064 113.026 L 100.064 111.643 L 100.575 110.31 L 101.087 108.977 L 95.501 109.135 L 89.916 109.294 L 89.425 109.784 L 88.935 110.275 L 89.621 113.93 L 90.306 117.585 L 93.435 116.913 Z M 81.149 107.479 L 84.9 107.479 L 86.482 106.872 L 88.064 106.265 L 88.064 101.899 L 88.064 97.532 L 82.066 97.756 L 76.068 97.979 L 76.066 102.062 L 76.064 106.146 L 76.731 106.812 L 77.397 107.479 L 81.149 107.479 Z M 94.149 107.479 L 97.9 107.479 L 99.482 106.872 L 101.064 106.265 L 101.061 102.122 L 101.058 97.979 L 95.06 97.805 L 89.063 97.631 L 89.063 101.888 L 89.063 106.146 L 89.73 106.812 L 90.396 107.479 L 94.149 107.479 Z M 49.481 104.479 L 49.898 104.479 L 54.531 102.493 L 59.164 100.507 L 61.005 96.243 L 62.847 91.979 L 63.519 86.298 L 64.191 80.617 L 62.117 79.507 L 60.043 78.397 L 55.66 81.413 L 51.277 84.428 L 50.171 87.603 L 49.064 90.777 L 49.064 97.628 L 49.064 104.479 L 49.481 104.479 Z M 128.437 103.704 L 129.31 103.209 L 128.852 96.094 L 128.393 88.979 L 126.979 86.299 L 125.564 83.619 L 121.604 80.936 L 117.644 78.254 L 116.104 79.218 L 114.564 80.182 L 114.259 83.738 L 113.954 87.294 L 115.544 92.763 L 117.134 98.233 L 118.849 99.764 L 120.564 101.295 L 124.064 102.748 L 127.564 104.2 L 128.437 103.704 Z M 82.564 95.808 L 86.564 95.25 L 86.959 94.887 L 87.353 94.523 L 87.851 89.347 L 88.348 84.171 L 84.456 84.814 L 80.564 85.457 L 78.314 85.468 L 76.064 85.479 L 76.064 90.396 L 76.064 95.312 L 77.314 95.839 L 78.564 96.366 L 82.564 95.808 Z M 96.564 96.327 L 98.564 96.448 L 99.944 95.574 L 101.324 94.7 L 100.661 90.28 L 99.999 85.861 L 94.989 84.834 L 89.979 83.808 L 89.434 84.69 L 88.889 85.571 L 89.562 90.467 L 90.236 95.362 L 92.4 95.784 L 94.564 96.207 L 96.564 96.327 Z M 77.88 83.44 L 83.195 83.479 L 85.13 82.444 L 87.064 81.409 L 87.053 78.694 L 87.042 75.979 L 86.413 72.173 L 85.784 68.367 L 82.416 65.798 L 79.047 63.229 L 76.503 63.229 L 73.959 63.229 L 71.492 65.546 L 69.026 67.864 L 65.913 72.714 L 62.8 77.565 L 64.682 79.074 L 66.564 80.583 L 69.564 81.992 L 72.564 83.401 L 77.88 83.44 Z M 99.854 83.449 L 105.144 83.479 L 109.152 81.434 L 113.161 79.389 L 113.725 77.92 L 114.288 76.452 L 110.451 70.88 L 106.614 65.309 L 104.905 64.394 L 103.195 63.479 L 100.664 63.479 L 98.133 63.479 L 94.599 66.583 L 91.064 69.686 L 91.064 75.533 L 91.064 81.38 L 92.814 82.399 L 94.564 83.418 L 99.854 83.449 Z M 55.001 79.173 L 55.564 78.825 L 58.638 77.499 L 61.712 76.174 L 65.564 70.225 L 69.415 64.277 L 71.239 63.138 L 73.064 61.998 L 73.064 61.239 L 73.064 60.479 L 68.032 60.479 L 63 60.479 L 59.496 61.943 L 55.992 63.407 L 54.528 66.911 L 53.064 70.415 L 53.064 74.28 L 53.064 78.146 L 53.751 78.833 L 54.439 79.521 L 55.001 79.173 Z M 123.207 79.422 L 123.85 79.479 L 124.457 77.897 L 125.064 76.316 L 125.064 73.865 L 125.064 71.415 L 123.624 67.969 L 122.184 64.523 L 118.874 62.505 L 115.564 60.487 L 109.564 60.519 L 103.564 60.551 L 106.172 62.765 L 108.781 64.979 L 112.305 70.292 L 115.83 75.605 L 119.197 77.485 L 122.564 79.364 L 123.207 79.422 Z M 89.064 75.479 L 89.865 72.979 L 89.964 70.404 L 90.064 67.828 L 92.321 65.707 L 94.578 63.587 L 98.071 62.072 L 101.564 60.558 L 100.44 60.518 L 99.315 60.479 L 95.19 61.935 L 91.064 63.391 L 91.064 61.885 L 91.064 60.38 L 92.454 57.68 L 93.843 54.979 L 94.837 51.359 L 95.831 47.738 L 92.448 48.776 L 89.064 49.815 L 85.564 48.741 L 82.064 47.666 L 82.064 48.05 L 82.064 48.434 L 84.564 55.075 L 87.064 61.717 L 87.064 62.705 L 87.064 63.693 L 85.314 62.973 L 83.564 62.252 L 81.564 61.756 L 79.564 61.259 L 83.188 63.819 L 86.812 66.38 L 87.438 68.011 L 88.064 69.643 L 88.164 73.811 L 88.263 77.979 L 89.064 75.479 Z M 78.064 61.479 L 79.397 61.479 L 78.731 60.813 L 78.064 60.146 L 77.397 60.813 L 76.731 61.479 L 78.064 61.479 Z M 84.298 60.359 L 85.032 60.479 L 83.327 56.729 L 81.623 52.979 L 81.465 52.684 L 81.307 52.39 L 78.367 55.33 L 75.426 58.271 L 79.495 59.255 L 83.564 60.239 L 84.298 60.359 Z M 94.493 60.145 L 95.922 59.597 L 99.326 58.958 L 102.73 58.319 L 99.647 55.149 L 96.564 51.979 L 94.814 55.838 L 93.064 59.698 L 93.064 60.195 L 93.064 60.693 L 94.493 60.145 Z M 89.064 47.417 L 92.564 47.416 L 94.132 46.198 L 95.701 44.98 L 98.091 40.167 L 100.481 35.355 L 99.364 34.665 L 98.247 33.975 L 97.568 29.977 L 96.889 25.98 L 96.403 24.209 L 95.916 22.439 L 89.24 23.076 L 82.564 23.712 L 81.335 25.258 L 80.107 26.803 L 80.713 29.218 L 81.319 31.634 L 80.096 33.921 L 78.872 36.207 L 80.468 39.294 L 82.064 42.38 L 82.064 43.88 L 82.064 45.38 L 83.814 46.4 L 85.564 47.419 L 89.064 47.417 Z M 98.731 25.146 L 99.397 24.479 L 98.731 23.813 L 98.064 23.146 L 98.064 24.479 L 98.064 25.813 L 98.731 25.146 Z M 80.713 22.973 L 82.362 21.324 L 84.134 21.787 L 85.906 22.251 L 90.635 21.367 L 95.364 20.484 L 96.964 21.606 L 98.564 22.729 L 95.758 20.104 L 92.952 17.479 L 90.758 17.369 L 88.564 17.258 L 86.064 17.423 L 83.564 17.589 L 81.314 20.09 L 79.064 22.591 L 79.064 23.606 L 79.064 24.622 L 80.713 22.973 Z"/>
</svg>